<?xml version="1.0" encoding="UTF-8" standalone="no"?>
<svg
   xmlns:dc="http://purl.org/dc/elements/1.1/"
   xmlns:cc="http://creativecommons.org/ns#"
   xmlns:rdf="http://www.w3.org/1999/02/22-rdf-syntax-ns#"
   xmlns:svg="http://www.w3.org/2000/svg"
   xmlns="http://www.w3.org/2000/svg"
   version="1.1"
   id="svg2"
   viewBox="0 0 531.49607 531.49606"
   height="150mm"
   width="150mm">
  <defs
     id="defs4" />
  <metadata
     id="metadata7">
    <rdf:RDF>
      <cc:Work
         rdf:about="">
        <dc:format>image/svg+xml</dc:format>
        <dc:type
           rdf:resource="http://purl.org/dc/dcmitype/StillImage" />
        <dc:title></dc:title>
      </cc:Work>
    </rdf:RDF>
  </metadata>
  <g
     transform="translate(0,-520.86613)"
     id="layer1">
    <path
       id="path4144"
       d="m 176.88574,615.24941 c 34.04846,-20.53871 107.88427,-25.28954 153.95285,-8.59958 23.41551,-53.22675 79.63363,-76.14592 102.94832,-64.03659 22.43754,12.25668 22.46588,62.95228 -3.62973,111.82352 31.95103,34.3071 62.35051,113.9268 63.26566,181.02023 0.45652,20.64904 -43.44202,88.39387 -57.63597,91.83653 -14.22496,-18.49151 -64.07906,-71.33113 -117.14347,-96.5782 l -106.06601,2.02031 C 179.8316,842.79504 111.68553,876.61123 80.289165,924.25057 65.675405,920.63996 38.110366,865.47848 37.840596,828.43335 47.839685,738.88178 61.182255,714.05724 87.810265,668.68003 58.676295,628.90074 54.875745,563.9805 84.820275,546.63362 c 25.634445,-9.74215 71.501645,13.13536 92.065465,68.61579 z"
       style="fill:#ffff00;fill-opacity:1;fill-rule:evenodd;stroke:#000000;stroke-width:7;stroke-linecap:butt;stroke-linejoin:miter;stroke-miterlimit:4;stroke-dasharray:none;stroke-opacity:1" />
    <ellipse
       ry="38.890873"
       rx="28.284271"
       cy="726.16455"
       cx="187.32358"
       id="path3340"
       style="fill:#000000;fill-opacity:1;fill-rule:evenodd;stroke:#000000;stroke-width:7;stroke-linecap:butt;stroke-linejoin:miter;stroke-miterlimit:4;stroke-dasharray:none;stroke-opacity:1" />
    <path
       id="path4148"
       d="m 188.97362,933.95486 c 25.74338,-37.39307 7.47459,-35.26713 75.40617,-43.23305 64.23241,1.35959 55.37705,26.89358 72.60835,42.37725 8.83929,10.42695 12.77368,19.35422 23.74099,36.33504 8.30678,17.47244 6.00881,24.66498 -0.67651,35.2453 -11.58106,1.8914 -13.17904,-8.40112 -25.44617,-7.02742 7.8615,14.97792 6.74968,24.69322 -1.02229,33.29402 -11.11796,6.3847 -26.12497,-14.1753 -41.39445,-16.0541 -8.45172,42.6196 -41.63273,26.2777 -51.82205,1.0699 -13.4813,8.0411 -18.98752,26.4421 -30.81413,22.5215 -10.69586,-3.857 -17.69628,-22.8687 -16.56244,-39.59282 -16.76066,3.51592 -15.51611,16.91262 -28.50767,16.21762 -7.6253,-7.0995 1.83562,-31.01292 6.50205,-48.78718 5.30532,-15.65798 8.86155,-20.84227 17.98815,-32.36606 z"
       style="fill:#e5e5d5;fill-opacity:1;fill-rule:evenodd;stroke:#000000;stroke-width:7;stroke-linecap:butt;stroke-linejoin:miter;stroke-miterlimit:4;stroke-dasharray:none;stroke-opacity:1" />
    <path
       id="path3338"
       d="m 262.16884,917.78169 c -0.3029,7.81719 -14.75557,33.31 -19.36799,50.34267 0,0 -30.85962,-2.11656 -57.33596,-7.69056 19.78706,16.87551 39.0351,34.02058 79.80205,40.4061 36.27656,-9.84025 65.03005,-22.50164 79.80205,-40.4061 -11.89073,2.28853 -36.25072,7.71687 -51.97566,6.96914 -3.27483,-0.15572 -7.11632,-34.17008 -18.95905,-51.00519"
       style="fill:#000000;fill-opacity:1;fill-rule:evenodd;stroke:#000000;stroke-width:7;stroke-linecap:butt;stroke-linejoin:miter;stroke-miterlimit:4;stroke-dasharray:none;stroke-opacity:1" />
    <path
       id="path4150"
       d="m 228.01783,985.54572 c 15.79763,10.84516 15.20616,11.74206 34.58908,13.62406 16.15857,0.019 23.219,-4.3981 41.18571,-13.41947 -26.86324,-20.03216 -41.81308,-19.83149 -75.77479,-0.20459 z"
       style="fill:#ff0000;fill-opacity:1;fill-rule:evenodd;stroke:#000000;stroke-width:7;stroke-linecap:butt;stroke-linejoin:miter;stroke-miterlimit:4;stroke-dasharray:none;stroke-opacity:1" />
    <path
       id="path4308"
       d="m 302.8683,976.27592 c 1.93581,8.49358 2.30852,30.17708 7.735,35.17998 4.3152,-6.419 9.07408,-27.85998 7.95665,-37.90069 z"
       style="fill:#ffffff;fill-opacity:1;fill-rule:evenodd;stroke:#000000;stroke-width:7;stroke-linecap:butt;stroke-linejoin:miter;stroke-miterlimit:4;stroke-dasharray:none;stroke-opacity:1" />
    <path
       id="path4308-6"
       d="m 230.53391,980.32915 c -1.91399,8.50194 -2.82367,27.97965 -8.189,32.98745 -4.26657,-6.4253 -8.46185,-25.66025 -7.35701,-35.71084 z"
       style="fill:#ffffff;fill-opacity:1;fill-rule:evenodd;stroke:#000000;stroke-width:7;stroke-linecap:butt;stroke-linejoin:miter;stroke-miterlimit:4;stroke-dasharray:none;stroke-opacity:1" />
    <path
       id="path4148-6"
       d="M 99.204165,857.52365 C 142.69235,792.1792 202.59441,799.04414 268.754,796.83104 c 76.57647,1.72862 130.88673,8.0017 166.98837,69.965 11.14894,22.27021 13.77116,48.15653 9.58537,71.84726 -8.07534,33.18462 -18.83452,47.07108 -40.90606,53.71028 -46.52708,4.9647 -140.06401,7.66052 -139.27291,-71.43782 5.74624,79.02632 -83.76537,74.82852 -131.88211,72.04502 -27.84322,-5.62813 -54.129695,-26.31511 -54.813165,-56.90832 -5.26147,-38.81389 2.72931,-53.75196 20.75067,-78.52881 z"
       style="fill:#e5e5d5;fill-opacity:1;fill-rule:evenodd;stroke:#000000;stroke-width:7;stroke-linecap:butt;stroke-linejoin:miter;stroke-miterlimit:4;stroke-dasharray:none;stroke-opacity:1" />
    <ellipse
       ry="11.22293"
       rx="7.1418648"
       cy="715.57843"
       cx="197.4187"
       id="path4152"
       style="fill:#ffffff;fill-opacity:1;stroke-width:7;stroke-miterlimit:4;stroke-dasharray:none" />
    <path
       id="path4169"
       d="m 219.25017,600.35309 c 4.53664,24.8934 7.90374,55.53483 18.36109,53.65048 10.84207,-0.20431 5.72151,-28.42859 9.03414,-53.69357 -8.60161,-0.9171 -17.13949,-2.02039 -27.39523,0.0431 z"
       style="fill:#000000;fill-opacity:1;fill-rule:evenodd;stroke:#000000;stroke-width:7;stroke-linecap:butt;stroke-linejoin:miter;stroke-miterlimit:4;stroke-dasharray:none;stroke-opacity:1" />
    <path
       id="path4169-3-9"
       d="m 469.37426,726.69488 c -24.36675,7.02684 -51.18087,12.28327 -48.27697,21.35987 1.26709,9.62073 29.79135,2.0451 55.29837,1.95644 0.0704,-7.76232 -3.95874,-14.44058 -7.0214,-23.31631 z"
       style="fill:#000000;fill-opacity:1;fill-rule:evenodd;stroke:#000000;stroke-width:7;stroke-linecap:butt;stroke-linejoin:miter;stroke-miterlimit:4;stroke-dasharray:none;stroke-opacity:1" />
    <path
       id="path4169-3-1"
       d="m 483.43136,771.29119 c -24.39806,6.72889 -54.64753,13.1228 -51.7399,21.81454 1.26872,9.2128 29.82963,1.95838 55.36943,1.87348 0.0705,-7.43318 -0.56294,-15.18863 -3.62953,-23.68802 z"
       style="fill:#000000;fill-opacity:1;fill-rule:evenodd;stroke:#000000;stroke-width:7;stroke-linecap:butt;stroke-linejoin:miter;stroke-miterlimit:4;stroke-dasharray:none;stroke-opacity:1" />
    <path
       id="path4169-7-2-0"
       d="m 53.594815,754.75724 c 25.00483,3.48779 57.309145,13.23287 57.870565,2.27945 2.26683,-10.79576 -29.499055,-13.92382 -53.078185,-25.29902 -2.83773,8.21902 -4.44927,12.2083 -4.79238,23.01957 z"
       style="fill:#000000;fill-opacity:1;fill-rule:evenodd;stroke:#000000;stroke-width:7;stroke-linecap:butt;stroke-linejoin:miter;stroke-miterlimit:4;stroke-dasharray:none;stroke-opacity:1" />
    <path
       id="path4169-7-2-9"
       d="m 44.252585,800.82203 c 25.14078,2.91284 55.5802,8.33078 56.144675,-0.81702 2.27916,-9.01613 -28.979255,-12.98891 -52.686585,-22.48896 -2.85316,6.86415 -3.11312,14.27689 -3.45809,23.30598 z"
       style="fill:#000000;fill-opacity:1;fill-rule:evenodd;stroke:#000000;stroke-width:7;stroke-linecap:butt;stroke-linejoin:miter;stroke-miterlimit:4;stroke-dasharray:none;stroke-opacity:1" />
    <path
       id="path4291"
       d="m 103.92519,658.01054 c 14.63148,-14.39533 39.36862,-26.8215 57.83791,-34.59861 -10.62402,-25.45835 -43.55363,-58.04721 -66.970225,-49.25904 -20.03593,16.98717 -4.38856,60.03265 9.132315,83.85765 z"
       style="fill:#e5e5d5;fill-opacity:1;fill-rule:evenodd;stroke:#000000;stroke-width:7;stroke-linecap:butt;stroke-linejoin:miter;stroke-miterlimit:4;stroke-dasharray:none;stroke-opacity:1" />
    <path
       id="path4291-3"
       d="m 349.50706,613.85593 c 19.86137,5.62383 46.35966,18.3749 60.66874,30.58961 14.89455,-15.95947 29.54002,-63.89559 6.25132,-77.7291 -32.6945,-9.96331 -54.87694,24.22421 -66.92006,47.13949 z"
       style="fill:#e5e5d5;fill-opacity:1;fill-rule:evenodd;stroke:#000000;stroke-width:7;stroke-linecap:butt;stroke-linejoin:miter;stroke-miterlimit:4;stroke-dasharray:none;stroke-opacity:1" />
    <path
       id="path4308-6-0"
       d="m 236.395,992.10878 c 0.71506,-6.04639 0.91687,-17.4034 4.59364,-21.30456 3.84836,4.1116 7.50812,17.83379 7.55223,24.88876 z"
       style="fill:#ffffff;fill-opacity:1;fill-rule:evenodd;stroke:#000000;stroke-width:7;stroke-linecap:butt;stroke-linejoin:miter;stroke-miterlimit:4;stroke-dasharray:none;stroke-opacity:1" />
    <path
       id="path4308-6-0-6"
       d="m 297.32711,988.41888 c -0.77159,-6.00497 -0.44569,-17.61923 -4.41313,-21.49365 -4.15259,4.08342 -8.48025,20.53297 -8.52785,27.53955 z"
       style="fill:#ffffff;fill-opacity:1;fill-rule:evenodd;stroke:#000000;stroke-width:7;stroke-linecap:butt;stroke-linejoin:miter;stroke-miterlimit:4;stroke-dasharray:none;stroke-opacity:1" />
    <ellipse
       ry="38.890873"
       rx="28.284271"
       cy="725.44098"
       cx="331.75375"
       id="path3340-2"
       style="fill:#000000;fill-opacity:1;fill-rule:evenodd;stroke:#000000;stroke-width:7;stroke-linecap:butt;stroke-linejoin:miter;stroke-miterlimit:4;stroke-dasharray:none;stroke-opacity:1" />
    <ellipse
       ry="11.22293"
       rx="7.1418648"
       cy="714.85492"
       cx="341.84888"
       id="path4152-6"
       style="fill:#ffffff;fill-opacity:1;stroke-width:7;stroke-miterlimit:4;stroke-dasharray:none" />
    <path
       id="path4169-3"
       d="m 299.2031,600.40011 c -4.06325,24.97707 -7.079,55.72149 -16.44512,53.83082 -9.71071,-0.205 -5.12447,-28.52415 -8.09143,-53.87406 7.70404,-0.92017 15.35099,-2.02717 24.53655,0.0433 z"
       style="fill:#000000;fill-opacity:1;fill-rule:evenodd;stroke:#000000;stroke-width:7;stroke-linecap:butt;stroke-linejoin:miter;stroke-miterlimit:4;stroke-dasharray:none;stroke-opacity:1" />
    <path
       id="path3336"
       d="m 197.38464,829.19315 c 10.20287,-19.78298 127.72284,-21.93559 142.24946,-4.04061 -1.3372,20.85428 -25.85359,82.71594 -75.57939,93.94418 -39.94533,-16.33557 -72.85397,-63.80401 -66.67007,-89.90357 z"
       style="fill:#000000;fill-opacity:1;fill-rule:evenodd;stroke:#000000;stroke-width:7;stroke-linecap:butt;stroke-linejoin:miter;stroke-miterlimit:4;stroke-dasharray:none;stroke-opacity:1" />
    <circle
       r="2.599196"
       cy="882.68616"
       cx="166.42981"
       id="path4289"
       style="fill:#000000;fill-opacity:1;stroke:#000000;stroke-width:7;stroke-miterlimit:4;stroke-dasharray:none;stroke-opacity:1" />
    <circle
       r="2.599196"
       cy="923.40692"
       cx="192.133"
       id="path4289-7"
       style="fill:#000000;fill-opacity:1;stroke:#000000;stroke-width:7;stroke-miterlimit:4;stroke-dasharray:none;stroke-opacity:1" />
    <circle
       r="2.599196"
       cy="925.13971"
       cx="138.41626"
       id="path4289-5"
       style="fill:#000000;fill-opacity:1;stroke:#000000;stroke-width:7;stroke-miterlimit:4;stroke-dasharray:none;stroke-opacity:1" />
    <circle
       r="2.599196"
       cy="880.08698"
       cx="364.83508"
       id="path4289-3"
       style="fill:#000000;fill-opacity:1;stroke:#000000;stroke-width:7;stroke-miterlimit:4;stroke-dasharray:none;stroke-opacity:1" />
    <circle
       r="2.599196"
       cy="921.67407"
       cx="324.40317"
       id="path4289-56"
       style="fill:#000000;fill-opacity:1;stroke:#000000;stroke-width:7;stroke-miterlimit:4;stroke-dasharray:none;stroke-opacity:1" />
    <circle
       r="2.599196"
       cy="922.25171"
       cx="391.40466"
       id="path4289-2"
       style="fill:#000000;fill-opacity:1;stroke:#000000;stroke-width:7;stroke-miterlimit:4;stroke-dasharray:none;stroke-opacity:1" />
  </g>
</svg>
